# xmcd CD database file
#
# Track frame offsets:
#	182
#	21447
#	34182
#	47262
#	59997
#	73875
#	88262
#	99105
#	110930
#	121670
#	137822
#	152297
#	176295
#	188195
#	227305
#	248805
#	259835
#	270660
#	289940
#	314062
#	328447
#
# Disc length: 4701 seconds
#
# Revision: 5
# Processed by: cddbd v1.5.2PL0 Copyright (c) Steve Scherf et al.
# Submitted via: CDex 1.70beta3
#
DISCID=37125b15
DTITLE=Various Artist - Blue Juice
DYEAR=1996
DGENRE=Jazz
TTITLE0=Streets Of Calcutta - Ananda Shankar
TTITLE1=Soul Mission - Brian Bennett
TTITLE2=For What Its Worth - Lou Rawls
TTITLE3=Willie and Laura Mae Jones - Nancy Wilson
TTITLE4=Mississippi Delta - Bobbie Gentry
TTITLE5=Sookie Sookie - Tina Britt
TTITLE6=Tighten Up - Benny Gordon
TTITLE7=Grits and Gravy - The Fame Gang
TTITLE8=Uptight - Billy Preston
TTITLE9=Look Into The Flower - Jimmy Caravan
TTITLE10=Give It Up Or Turnit Loose - Dick Hyman
TTITLE11=Dancing Drums - Ananda Shankar
TTITLE12=Killiano - Johnny Lyttle
TTITLE13=No Problem - Jerome Richardson
TTITLE14=Samba For Maria - Norman Connors
TTITLE15=Mas Que Nada - Elza Soares
TTITLE16=Cala Boca Menino - João Donato
TTITLE17=You Never Come Closer - Doris
TTITLE18=Ode To Billie Joe - Nancy Wilson
TTITLE19=Hey Girl - Gene Harris
TTITLE20=MSP - Chico Hamilton
EXTD=YEAR: 1996
EXTT0=
EXTT1=
EXTT2=
EXTT3=
EXTT4=
EXTT5=
EXTT6=
EXTT7=
EXTT8=
EXTT9=
EXTT10=
EXTT11=
EXTT12=
EXTT13=
EXTT14=
EXTT15=
EXTT16=
EXTT17=
EXTT18=
EXTT19=
EXTT20=
PLAYORDER=
